<?xml version="1.0" standalone="no"?><!DOCTYPE svg PUBLIC "-//W3C//DTD SVG 1.1//EN" "http://www.w3.org/Graphics/SVG/1.1/DTD/svg11.dtd"><svg t="1598621284599" class="icon" viewBox="0 0 1024 1024" version="1.1" xmlns="http://www.w3.org/2000/svg" p-id="7220" xmlns:xlink="http://www.w3.org/1999/xlink" width="200" height="200"><defs><style type="text/css"></style></defs><path d="M512.003 64.488c-247.158 0-447.515 200.357-447.515 447.515 0 247.132 200.357 447.509 447.515 447.509 247.156 0 447.509-200.377 447.509-447.509 0.005-247.158-200.353-447.515-447.509-447.515z" fill="#32A6D4" p-id="7221"></path><path d="M687.132 612.655s-12.578 34.311-35.651 65.131c0 0 41.225 14.007 37.743 50.423 0 0 1.379 40.615-88.037 37.813 0 0-62.907-4.903-81.764-31.512h-16.625c-18.859 26.62-81.744 31.512-81.744 31.512-89.447 2.799-88.048-37.813-88.048-37.813-3.49-36.416 37.731-50.423 37.731-50.423-23.051-30.82-35.628-65.131-35.628-65.131-55.91 90.345-50.317-12.608-50.317-12.608 10.494-60.93 54.496-100.843 54.496-100.843-6.292-55.337 16.769-65.13 16.769-65.13 4.843-171.185 151.968-168.195 155.052-168.112 3.095-0.083 150.201-3.073 155.051 168.1 0 0 23.054 9.805 16.769 65.13 0 0 44.024 39.915 54.499 100.843 0.003 0.012 5.583 102.965-50.296 12.62z" fill="#FFFFFF" p-id="7222"></path></svg>