<?xml version="1.0" standalone="no"?><!DOCTYPE svg PUBLIC "-//W3C//DTD SVG 1.1//EN" "http://www.w3.org/Graphics/SVG/1.1/DTD/svg11.dtd"><svg t="1598414194020" class="icon" viewBox="0 0 1024 1024" version="1.1" xmlns="http://www.w3.org/2000/svg" p-id="4105" xmlns:xlink="http://www.w3.org/1999/xlink" width="200" height="200"><defs><style type="text/css"></style></defs><path d="M0 0h1024v1024H0z" fill="#FFFFFF" p-id="4106"></path><path d="M901.248 188.8l-37.504-0.64A540.16 540.16 0 0 1 691.2 151.04a759.936 759.936 0 0 1-147.328-78.336L521.088 56.32 499.2 72.704a759.936 759.936 0 0 1-148.096 78.336 573.184 573.184 0 0 1-181.504 37.12l-46.848 0.64v383.232c0 192 256 395.648 389.248 395.648s384.896-203.392 384.896-395.648z m-87.296 383.104c0 148.736-219.136 318.976-307.2 318.976s-307.2-170.24-307.2-318.976V262.272A565.12 565.12 0 0 0 371.2 222.208a1005.056 1005.056 0 0 0 145.792-72.32 845.952 845.952 0 0 0 138.24 72.32c64 25.6 159.104 35.968 159.104 40.064z" fill="#0082FD" p-id="4107"></path><path d="M487.552 715.904L326.144 578.432l49.536-58.368 103.552 88.064L675.84 381.696l57.984 50.432-246.272 283.776z" fill="#ABE3FF" p-id="4108"></path></svg>