<?xml version="1.0" standalone="no"?><!DOCTYPE svg PUBLIC "-//W3C//DTD SVG 1.1//EN" "http://www.w3.org/Graphics/SVG/1.1/DTD/svg11.dtd"><svg t="1598617109899" class="icon" viewBox="0 0 1024 1024" version="1.1" xmlns="http://www.w3.org/2000/svg" p-id="5665" xmlns:xlink="http://www.w3.org/1999/xlink" width="200" height="200"><defs><style type="text/css"></style></defs><path d="M512.090316 512.090316m-478.673488 0a478.673487 478.673487 0 1 0 957.346975 0 478.673487 478.673487 0 1 0-957.346975 0Z" fill="#F4F4F4" p-id="5666"></path><path d="M512.090316 233.375904c-132.222261 0-190.746869 71.530076-190.746869 190.746869v333.626389H702.656553V424.122773c0-119.216793-77.852179-190.746869-190.566237-190.746869z" fill="#F3B970" p-id="5667"></path><path d="M512.090316 990.763803h1.26442L583.43976 686.219086l-23.843359-95.373434H464.222967l-23.843359 95.373434 70.265656 304.544717h1.445052z" fill="#FCE9EA" p-id="5668"></path><path d="M577.659552 376.074793c-18.605045 41.183983-83.090492 71.891339-160.942671 71.891339h-47.325454c1.083789 46.78356 5.418945 82.909861 23.482096 119.216793 23.843359 47.686717 72.433233 95.373434 119.216793 95.373434s95.373434-47.686717 119.216793-95.373434c21.314518-42.448404 23.482096-84.896807 23.843358-144.143941-1.625684-26.914094-52.202505-46.964191-77.490915-46.964191z" fill="#FCE9EA" p-id="5669"></path><path d="M721.803493 388.89963c-20.772623-75.142706-106.753219-131.499735-209.713177-131.499736s-188.940554 56.357029-209.713177 131.499736c-15.895572 8.670312-28.720409 21.314518-28.720409 35.223143v47.686717c0 26.3722 45.157876 47.686717 71.530075 47.686717v-95.373434c0-65.749868 74.781443-119.216793 166.903511-119.216793s166.90351 53.286294 166.90351 119.216793v47.686717c0 51.118716-32.152408 94.650908-77.310284 111.63027-6.322103-9.754101-17.340624-16.256835-29.98483-16.256835h-47.686717c-19.688834 0-35.765038 16.076204-35.765038 35.765038s16.076204 35.765038 35.765038 35.765038h47.686717c3.431999 0 6.863997-0.541895 10.115365-1.445053 70.265655-9.212207 126.803316-62.317869 141.253836-130.777209 15.353678-8.670312 27.455989-20.953255 27.455989-34.500617v-47.686718c-0.180632-14.089257-12.824837-26.733463-28.720409-35.403774z" fill="#7F7E7E" p-id="5670"></path><path d="M798.029988 805.435879c-19.146939-19.146939-144.143941-74.962074-180.631505-91.038278l109.101429 91.038278-119.216793 23.843359-23.843359 55.634503-44.977245 105.127536c15.173046-0.903158 30.165461-2.34821 44.977245-4.515787 93.567119-14.089257 178.102664-55.092609 245.658846-114.881637-6.863997-26.733463-16.79873-50.938084-31.068618-65.207974zM416.716881 829.279238l-119.216793-23.843359 109.101429-90.857647c-36.487564 16.076204-161.484565 71.891339-180.631505 90.857647-14.269889 14.269889-24.204622 38.47451-31.24925 65.027342 67.556183 59.789028 152.272358 100.79238 245.658846 114.881637 14.811783 2.167578 29.804198 3.793262 44.977245 4.515788l-44.977245-105.127536-23.662727-55.453872z" fill="#23C4FF" p-id="5671"></path><path d="M406.601517 714.578232l-109.101429 90.857647 119.216793 23.843359 23.843359 55.634503 44.977245 105.127536c8.128418 0.361263 16.437467 0.722526 24.746516 0.722526h0.541894l-70.265655-304.544717-33.958723 28.359146zM617.398483 714.578232L583.43976 686.219086l-70.265655 304.544717h0.541894c8.309049 0 16.437467-0.180632 24.746516-0.722526l44.977245-105.127536 23.843359-55.634503 119.216793-23.843359-109.101429-90.857647z" fill="#FFFFFF" p-id="5672"></path></svg>