<?xml version="1.0" standalone="no"?><!DOCTYPE svg PUBLIC "-//W3C//DTD SVG 1.1//EN" "http://www.w3.org/Graphics/SVG/1.1/DTD/svg11.dtd"><svg t="1598426728179" class="icon" viewBox="0 0 1024 1024" version="1.1" xmlns="http://www.w3.org/2000/svg" p-id="4855" xmlns:xlink="http://www.w3.org/1999/xlink" width="200" height="200"><defs><style type="text/css"></style></defs><path d="M806.4 652.8a153.6 153.6 0 0 0-125.44 65.216l-315.776-151.04a152.96 152.96 0 0 0-1.536-89.536l320.512-167.232c28.096 36.992 72.32 60.928 122.24 60.928 84.736 0 153.6-68.864 153.6-153.6s-68.864-153.6-153.6-153.6a153.728 153.728 0 0 0-146.048 200.896L339.84 432.064a153.216 153.216 0 0 0-122.24-60.928c-84.736 0-153.6 68.864-153.6 153.6s68.864 153.6 153.6 153.6A153.6 153.6 0 0 0 343.04 613.12l315.776 151.04A153.728 153.728 0 0 0 806.4 960c84.736 0 153.6-68.864 153.6-153.6s-68.864-153.6-153.6-153.6z m0-537.6c56.448 0 102.4 45.952 102.4 102.4S862.848 320 806.4 320 704 274.048 704 217.6s45.952-102.4 102.4-102.4z m-588.8 512c-56.448 0-102.4-45.952-102.4-102.4s45.952-102.4 102.4-102.4S320 468.352 320 524.8c0 56.448-45.952 102.4-102.4 102.4z m588.8 281.6c-56.448 0-102.4-45.952-102.4-102.4s45.952-102.4 102.4-102.4 102.4 45.952 102.4 102.4-45.952 102.4-102.4 102.4z" p-id="4856"></path></svg>