<?xml version="1.0" standalone="no"?><!DOCTYPE svg PUBLIC "-//W3C//DTD SVG 1.1//EN" "http://www.w3.org/Graphics/SVG/1.1/DTD/svg11.dtd"><svg t="1598337332964" class="icon" viewBox="0 0 1024 1024" version="1.1" xmlns="http://www.w3.org/2000/svg" p-id="1628" xmlns:xlink="http://www.w3.org/1999/xlink" width="200" height="200"><defs><style type="text/css"></style></defs><path d="M722.133333 896a42.666667 42.666667 0 0 1-21.333333-5.333333l-178.346667-99.2a21.333333 21.333333 0 0 0-21.333333 0l-178.986667 99.2a42.666667 42.666667 0 0 1-44.8-2.56 42.666667 42.666667 0 0 1-17.706666-42.666667l34.986666-214.613333a21.333333 21.333333 0 0 0-5.76-18.773334l-149.333333-152.533333a42.666667 42.666667 0 0 1 24.746667-71.466667l202.666666-30.933333a21.333333 21.333333 0 0 0 16.213334-12.16l90.24-192a42.666667 42.666667 0 0 1 77.226666 0l90.24 192a21.333333 21.333333 0 0 0 16.213334 12.16l202.666666 30.933333a42.666667 42.666667 0 0 1 24.106667 72.32l-149.333333 152.533334a21.333333 21.333333 0 0 0-5.76 18.56l34.986666 214.826666a42.666667 42.666667 0 0 1-42.666666 49.706667zM512 746.666667a65.28 65.28 0 0 1 31.146667 8.106666L722.133333 853.333333l-34.773333-214.826666a64 64 0 0 1 16.64-55.253334l149.333333-152.746666-202.666666-31.146667A64 64 0 0 1 602.24 362.666667L512 170.666667l-90.24 192a64 64 0 0 1-48.213333 36.266666L170.666667 430.293333l149.333333 152.96a65.066667 65.066667 0 0 1 17.493333 55.253334L301.866667 853.333333l178.986666-98.986666A65.28 65.28 0 0 1 512 746.666667z" p-id="1629"></path></svg>