<?xml version="1.0" standalone="no"?><!DOCTYPE svg PUBLIC "-//W3C//DTD SVG 1.1//EN" "http://www.w3.org/Graphics/SVG/1.1/DTD/svg11.dtd"><svg t="1598621305421" class="icon" viewBox="0 0 1024 1024" version="1.1" xmlns="http://www.w3.org/2000/svg" p-id="8140" xmlns:xlink="http://www.w3.org/1999/xlink" width="200" height="200"><defs><style type="text/css"></style></defs><path d="M512 1024C794.291892 1024 1024 794.291892 1024 512S794.291892 0 512 0 0 229.708108 0 512 229.708108 1024 512 1024z" fill="#FFD93E" p-id="8141"></path><path d="M741.708108 564.583784c-13.837838-41.513514-55.351351-55.351351-66.421622-55.351352-8.302703 0-19.372973-5.535135-11.07027-16.605405 5.535135-11.07027 19.372973-41.513514-5.535135-63.654054-22.140541-22.140541-71.956757-13.837838-107.935135 0-35.978378 13.837838-33.210811 5.535135-33.210811-5.535135s19.372973-69.189189-38.745946-74.724324c-74.724324-8.302703-171.589189 83.027027-204.8 135.61081-52.583784 80.259459-44.281081 135.610811-44.281081 135.610811 5.535135 74.724324 119.005405 135.610811 254.616216 135.610811 119.005405 0 215.87027-44.281081 246.313514-105.167568 2.767568-5.535135 5.535135-13.837838 5.535135-19.372973 8.302703-19.372973 13.837838-44.281081 5.535135-66.421621z" fill="#E71F19" p-id="8142"></path><path d="M470.486486 719.567568c-96.864865 0-177.124324-52.583784-177.124324-116.237838 0-63.654054 80.259459-116.237838 177.124324-116.237838 96.864865 0 177.124324 52.583784 177.124325 116.237838 0 63.654054-77.491892 116.237838-177.124325 116.237838z" fill="#FFFFFF" p-id="8143"></path><path d="M711.264865 462.183784h5.535135c5.535135 0 11.07027-2.767568 13.837838-8.302703 2.767568-8.302703 5.535135-16.605405 5.535135-27.675676 0-38.745946-30.443243-69.189189-69.189189-69.189189-8.302703 0-19.372973 2.767568-27.675676 5.535135-8.302703 2.767568-11.07027 11.07027-8.302703 19.372973 2.767568 8.302703 11.07027 11.07027 19.372973 8.302703 2.767568-2.767568 8.302703-2.767568 13.837838-2.767568 22.140541 0 41.513514 19.372973 41.513514 41.513514 0 5.535135 0 11.07027-2.767568 16.605405-2.767568 2.767568-2.767568 8.302703 0 11.070271 2.767568 2.767568 5.535135 5.535135 8.302703 5.535135z m0 0" fill="#F5AA15" p-id="8144"></path><path d="M664.216216 271.221622c-16.605405 0-33.210811 2.767568-47.048648 5.535135-11.07027 2.767568-16.605405 13.837838-13.837838 27.675675 2.767568 11.07027 16.605405 16.605405 27.675675 13.837838 11.07027-2.767568 22.140541-5.535135 35.978379-5.535135 66.421622 0 121.772973 55.351351 121.772973 121.772973 0 11.07027-2.767568 24.908108-5.535135 35.978378s2.767568 22.140541 13.837837 27.675676h5.535136c8.302703 0 16.605405-5.535135 19.372973-13.837838 5.535135-16.605405 8.302703-30.443243 8.302702-47.048648 0-94.097297-74.724324-166.054054-166.054054-166.054054z m0 0" fill="#F5AA15" p-id="8145"></path><path d="M453.881081 531.372973c-52.583784 0-94.097297 35.978378-94.097297 83.027027 0 44.281081 41.513514 83.027027 94.097297 83.027027s94.097297-35.978378 94.097297-83.027027-41.513514-83.027027-94.097297-83.027027zM423.437838 664.216216c-19.372973 0-33.210811-13.837838-33.210811-33.210811s13.837838-33.210811 33.210811-33.21081 33.210811 13.837838 33.210811 33.21081S442.810811 664.216216 423.437838 664.216216z m63.654054-58.118919c-2.767568 5.535135-11.07027 11.07027-16.605406 5.535135-5.535135-2.767568-8.302703-11.07027-2.767567-19.372973 2.767568-5.535135 11.07027-11.07027 16.605405-5.535135 5.535135 5.535135 5.535135 13.837838 2.767568 19.372973z m0 0" fill="#040000" p-id="8146"></path></svg>